<svg xmlns="http://www.w3.org/2000/svg" width="144.162" height="101.619" viewBox="7.271 70.324 144.162 101.619" xml:space="preserve"><path fill="#E74645" d="M148.65 150.58c3.14 3.18 3.64 7.33 1.409 9.49l-9.52 9.27c-2.21 2.16-6.35 1.55-9.44-1.68-3.08-3.24-2.29-5.561-19.609-20.45-9.601-8.25-12.49-12.47-16.77-22.89L83.53 112.8c-1.79-1.85-9.12-7.939-14.87-2.34-1.68 1.66-2.47 3.89-2.38 6.09.06 1.13-.39 2.21-1.19 3l-6.92 6.92c-.8.771-2.08.75-2.84-.029l-14-14.4c-.77-.79-.76-2.07.03-2.84l6.93-6.92c.81-.79 1.91-1.21 3.02-1.12 2.21.16 4.47-.561 6.16-2.22 1.69-1.66 2.48-3.89 2.38-6.1-.05-1.12.39-2.2 1.19-2.99l8.73-8.49c8.68-8.42 33.38-16.42 43.79-6.3l-1.54 3.85c-6.51-1.66-10.949.02-16.7 5.61-5.7 5.54-5.22 12.02-.29 17.08l11.19 11.511c10.4 4.6 14.5 7.439 22.521 17.3 14.409 17.718 16.749 16.998 19.909 20.168z"/><g fill-rule="evenodd" clip-rule="evenodd" fill="#E74645"><path d="M30.98 171.943c-1.019-.055-1.96-.304-2.782-.929-.67-.509-.811-.872-.551-1.655a362.77 362.77 0 0 1 2.042-6.037c1.12-3.191 2.269-6.374 3.405-9.561l7.007-19.641c.277-.777.611-1.539.829-2.332.201-.729.649-1.189 1.302-1.466 1.391-.59 2.831-.752 4.297-.332 1.448.413 2.106 1.67 1.604 3.086-1.971 5.562-3.961 11.115-5.937 16.675-.968 2.721-1.914 5.449-2.875 8.172-1.422 4.026-2.823 8.059-4.287 12.069-.426 1.166-1.534 1.556-2.639 1.82-.456.11-.943.091-1.415.131zM15.905 151.382c.945.453 1.773.855 2.607 1.248 2.595 1.222 5.167 2.497 7.799 3.636 1.356.587 1.807 1.588 1.872 2.915.029.599.046 1.198.061 1.798.046 1.949-1.474 2.897-3.219 2.023-4.89-2.449-9.783-4.89-14.674-7.336-.608-.305-1.221-.605-1.81-.945a1.53 1.53 0 0 1-.56-.55c-.702-1.285-.842-2.675-.605-4.091.198-1.186.938-1.971 2.015-2.496 3.617-1.765 7.222-3.553 10.832-5.333 1.739-.858 3.472-1.73 5.218-2.575 1.036-.501 1.774-.284 2.307.737.83 1.595.788 3.244-.025 4.817-.245.473-.764.893-1.257 1.132-3.269 1.582-6.565 3.108-9.852 4.654-.198.095-.393.203-.709.366zM59.635 151.398l-2.663-1.252c-2.782-1.307-5.567-2.607-8.341-3.934-.279-.134-.598-.379-.705-.648-.617-1.541-.931-3.13-.391-4.768.402-1.217 1.45-1.675 2.565-1.121 5.602 2.78 11.2 5.565 16.796 8.36.78.39 1.183 1.078 1.272 1.932.069.656.104 1.319.122 1.979.042 1.51-.706 2.585-2.003 3.229-4.747 2.359-9.516 4.68-14.276 7.013-.687.336-1.377.662-2.065.994-.769.371-1.232.36-1.75-.314-.396-.52-.73-1.171-.841-1.808-.243-1.412-.177-2.857.886-3.956.509-.527 1.241-.868 1.922-1.193 3.053-1.46 6.123-2.883 9.186-4.32.055-.026.102-.067.286-.193z"/></g></svg>