<svg xmlns="http://www.w3.org/2000/svg" style="background-color:rgb(245,245,245,0%)" width="8.639" height="9.688" xml:space="preserve"><path fill="#566E58" d="m8.194 7.327.018.006c.013.004.014.01.006.019-.01.023-.03.035-.063.035-.008 0-.014-.001-.017-.006a.028.028 0 0 0-.018-.006c.022.023.021.044-.002.061l-.014.011c-.009.04-.036.078-.077.114s-.069.065-.088.09l-.162.132c-.008.009-.087.071-.236.192l-.235.168a.573.573 0 0 1-.111.061.298.298 0 0 1-.1.096c-.24.168-.454.297-.642.385-.295.15-.604.261-.928.334a4.518 4.518 0 0 1-.988.108 3.872 3.872 0 0 1-1.567-.384c-.032-.015-.088-.042-.17-.078a.346.346 0 0 1-.168-.126.468.468 0 0 1-.212-.096l-.21-.156a4.256 4.256 0 0 1-.415-.372 3.27 3.27 0 0 1-.428-.479.239.239 0 0 0-.04-.061 1.084 1.084 0 0 1-.077-.144 1.34 1.34 0 0 0-.087-.181l-.062-.108-.05-.083a7.521 7.521 0 0 1-.287-.829c-.013-.055-.015-.092-.007-.107l.015-.061c.001-.03-.013-.06-.044-.084L.707 5.72c0-.017-.008-.108-.024-.276a1.73 1.73 0 0 1-.018-.407l.002-.05.006-.144c.001-.04.007-.064.015-.072s.019-.008.03 0a.209.209 0 0 1 .031.024.644.644 0 0 1-.05-.229c.001-.039.014-.147.038-.323a.806.806 0 0 1 .057-.181l.026-.078.027-.054.052-.097a.349.349 0 0 0 .063-.071c.01-.04.007-.06-.01-.06H.941c-.023 0-.03-.036-.02-.108.046-.136.082-.216.106-.24a.143.143 0 0 0 .032-.048c.016-.023.019-.044.01-.059l.016-.062a.62.62 0 0 0 .092-.18l.093-.19a.327.327 0 0 0 .077-.095c.043-.097.081-.153.114-.169.009-.016.021-.004.035.036l.026-.048a.446.446 0 0 0 .033-.097.544.544 0 0 1 .062-.131.396.396 0 0 1 .1-.106.34.34 0 0 0 .099-.085c0-.01-.009-.01-.028 0-.021.007-.015-.013.02-.061a.462.462 0 0 1 .125-.096.41.41 0 0 1 .121-.013.13.13 0 0 0 .03-.041c.004-.012.008-.021.008-.029.045-.128.201-.284.465-.468l.086-.048a.258.258 0 0 0 .149-.097c.017-.031.05-.056.099-.072.024-.008.034-.006.03.008a.068.068 0 0 1-.032.027l-.032.037c-.013.017-.007.025.018.025a.295.295 0 0 0 .098-.062c.017-.015.031-.022.043-.022s.018.004.017.012c.016.017.035.017.061 0a.817.817 0 0 0 .055-.03l.056-.03-.072-.025c-.057 0-.072-.012-.046-.036.051-.056.12-.1.21-.132l.121-.036a.528.528 0 0 0 .11-.06c.065-.04.118-.052.158-.036l.022.036c.039.023.09.023.156 0 .031-.009.05-.019.055-.029a.072.072 0 0 1 .02-.03l.074-.048.063-.036a.262.262 0 0 1 .097-.036c.056 0 .051.021-.014.061l-.013.011c.008.008.027.016.06.023a.195.195 0 0 0 .096 0A.211.211 0 0 1 4.343.77c.013-.004.011-.006-.006-.006C4.29.755 4.271.74 4.28.715a.156.156 0 0 0 .015-.048c.072 0 .118.008.137.023a.522.522 0 0 1 .041.036c.009 0 .018.002.024.006a.062.062 0 0 0 .035.008.205.205 0 0 0 .061-.036C4.601.695 4.6.686 4.588.673 4.577.661 4.571.651 4.571.644c-.007-.009.025-.021.098-.037.04 0 .051.009.035.023-.008.01-.003.023.016.043.02.021.017.038-.008.055a.371.371 0 0 0 .139-.019c.028-.013.027-.025-.005-.042-.016 0-.022-.008-.021-.023 0-.017.016-.024.049-.024s.055.004.071.012c.009 0 .012.006.012.019s.019.021.058.029c.049-.008.063-.022.039-.048-.017-.017-.005-.028.035-.037.048 0 .08.009.095.024a.335.335 0 0 0 .04.035c.021.017.025.028.018.036-.009.009-.008.019.004.03.01.013.02.022.028.03.023 0 .042-.006.055-.019.011-.011.038-.018.078-.018.007.023.039.053.098.084.06.034.104.058.137.074.008-.023.002-.048-.022-.072L5.539.74A.731.731 0 0 0 5.41.667c-.017-.008-.037-.019-.065-.03-.027-.012-.044-.026-.052-.042a.49.49 0 0 1 .118.042c.04.02.079.034.119.042 0-.008.006-.018.014-.029.008-.013.02-.019.037-.019.023 0 .091.013.202.036.048.017.11.032.189.048l.167.036c.055.017.092.03.111.042.02.013.024.025.017.042-.001.016.014.028.046.036.039.017.066.017.084 0 0-.009.017-.013.048-.013a.36.36 0 0 1 .131.024c.244.097.494.225.752.385l.187.108.082.048.069.061c.046.023.15.096.313.216.101.071.161.124.179.161s.019.078 0 .126a.272.272 0 0 1-.17.048c-.016 0-.022.005-.023.013l.01.036c-.001.031-.035.055-.099.07-.065.017-.107.042-.124.073-.009.032-.048.055-.117.066-.069.012-.112.026-.128.042-.049.032-.068.068-.053.108.008.009.007.019-.001.029-.01.013-.018.02-.025.02s-.018.001-.03.005-.015.01-.007.018l.011.036c-.002.032-.025.051-.069.054a.486.486 0 0 0-.103.018h-.012c-.023 0-.051-.017-.082-.048a14.937 14.937 0 0 0-.337-.24 5.94 5.94 0 0 0-.35-.24 3.472 3.472 0 0 0-.47-.204.36.36 0 0 1-.093-.06.244.244 0 0 0-.081-.06c-.016-.016-.027-.024-.035-.024-.032 0-.041.017-.026.048 0 .017-.024.017-.072 0 .001-.023-.029-.044-.093-.061-.064-.023-.083-.046-.058-.071.008 0 .011-.004.007-.013a.09.09 0 0 0-.018-.023c-.016-.008-.035-.008-.06 0-.056.008-.093.021-.11.036a.2.2 0 0 0-.038.084c-.041-.016-.065-.036-.076-.06-.012-.023-.023-.04-.04-.048-.032 0-.037.012-.015.035v.025c0 .008-.01.014-.03.018a.492.492 0 0 1-.102.007l-.168-.013a.587.587 0 0 0-.182.023c-.016.009-.052.006-.106-.01-.047-.017-.071-.032-.07-.049l.04-.084.063-.071a.66.66 0 0 0-.111.059l-.062.061c-.008.007-.014.023-.015.048-.001.023.014.052.045.083a.186.186 0 0 1-.078.006.284.284 0 0 0-.042-.006.373.373 0 0 0-.096-.024c-.024.017-.023.03.005.042.027.013.041.021.041.029a.094.094 0 0 1-.097 0c-.001.017.008.029.029.037a.15.15 0 0 0 .042.013.549.549 0 0 0 .182-.036h.023c.008.008.021.01.042.005a.284.284 0 0 1 .042-.006c.04 0 .072-.004.097-.013.081-.015.141-.023.182-.023l.18-.012c.063 0 .145.008.239.023.12.015.174.04.165.072.017-.018.049-.024.097-.024a.58.58 0 0 1 .138.019c.051.013.085.021.101.029.308.08.629.229.963.444.029.025.138.109.323.254.07.048.114.09.133.126s.016.062-.009.078a.218.218 0 0 0-.107.107c-.021.049-.038.08-.046.097a.085.085 0 0 1-.045.035c-.02.007-.027.026-.02.06-.001.017-.025.008-.071-.023l-.152-.109a4.087 4.087 0 0 0-.15-.12c-.016-.023-.03-.04-.046-.048s-.027-.016-.036-.024a.272.272 0 0 0-.068-.048 3.588 3.588 0 0 0-.291-.192l-.307-.144a2.937 2.937 0 0 0-.331-.096 1.37 1.37 0 0 0-.369-.072h-.109c-.07 0-.172.008-.301.024a.308.308 0 0 1-.096.012c-.032 0-.051-.016-.059-.048-.025.048-.071.08-.136.095a2.23 2.23 0 0 0-.597.204 2.19 2.19 0 0 0-.532.36c-.1.089-.209.201-.328.337-.1.128-.186.256-.255.384-.105.184-.19.384-.255.601a1.852 1.852 0 0 0-.087.3 3.62 3.62 0 0 0-.038.323l-.004.084A.262.262 0 0 0 2.347 5a.122.122 0 0 0 .015.065c.012.021.021.026.029.02.025-.009.038-.045.041-.11.003-.256.053-.544.147-.864l.041-.096c.017-.032.041-.044.072-.036-.021-.032-.023-.071-.006-.12 0-.016.009-.04.027-.071l.027-.048.091-.156.079-.145.229-.275.038-.049a.17.17 0 0 0 .043-.034c.012-.018.031-.028.055-.036.025-.009.04.002.046.035.019-.032.022-.054.016-.062.001-.032.01-.056.026-.072 0-.016.01-.022.025-.022l.049-.036c.025-.008.042-.028.051-.061a1.12 1.12 0 0 1 .149-.096.207.207 0 0 1 .073-.024h.072c.008-.008.007-.016-.005-.023-.011-.008-.008-.021.008-.037a.228.228 0 0 1 .11-.061c.042-.007.073-.003.096.014a.205.205 0 0 1 .1-.097l.098-.036.135-.036a.14.14 0 0 0 .085-.022l.108-.036h.12l-.012.01.109-.036a.36.36 0 0 1 .119.013c.024 0 .041-.005.049-.013.098-.024.133-.012.107.036a.132.132 0 0 0 .062-.023c.024-.017.049-.013.071.013h.024l.037-.024c.063 0 .1.008.105.024.007.016-.003.02-.03.012s-.042-.008-.042 0c.024.022.044.034.059.034s.04-.008.073-.024c.016-.016.041-.02.072-.012s.052.02.06.036c.03.024.062.032.094.024a.084.084 0 0 0 .031-.007c.012-.004.025-.001.042.007.015.016.015.027-.001.036-.019.017-.02.032-.003.048.015.017.022.028.021.036.016.016.036.02.06.012.016 0 .024-.009.024-.024 0-.008-.004-.012-.012-.012s-.014-.004-.021-.012c-.031 0-.048-.004-.047-.013 0-.008.021-.02.062-.035.016 0 .04.008.07.023a.161.161 0 0 1 .022.036c.007.017.015.027.022.036.008-.009.02-.013.036-.013.031 0 .067.013.106.036.11.04.22.101.328.18l.082.073.069.06a.8.8 0 0 1 .162.133c.063.048.106.094.132.138s.042.074.05.089c.015.018.015.022-.001.02a.129.129 0 0 0-.036-.007h-.036a.147.147 0 0 1-.106-.049l-.219-.18-.047-.035-.046-.036-.105-.072c-.147-.128-.258-.204-.337-.227-.031-.008-.047-.021-.046-.037a.053.053 0 0 0-.011-.036l-.049.012c-.063 0-.146-.036-.247-.108-.022-.039-.058-.048-.106-.024a.055.055 0 0 1-.037.012c-.025.008-.057.004-.096-.012a.303.303 0 0 0-.096-.012h-.095c-.023 0-.047-.013-.07-.036l-.024-.012h-.048c-.002.032-.018.048-.051.048-.064 0-.091-.017-.082-.049 0-.016-.011-.027-.035-.036-.008 0-.016.005-.024.014-.002.071-.06.096-.17.071l-.085.012c-.041.016-.061.012-.06-.013-.024.009-.033.021-.025.037.007.018-.001.028-.025.036l-.061.024h-.037l-.048.012c-.009.009-.025.013-.049.013-.008-.009.001-.021.026-.037.042-.04.039-.061-.01-.061a.086.086 0 0 0-.019.037c-.005.017-.023.028-.056.036l-.025.012a.36.36 0 0 1-.185.12l-.061.036c-.067.063-.104.071-.11.023-.007-.017-.019-.017-.035 0-.016.009-.025.021-.026.037 0 .008.005.018.016.029.012.013.001.025-.031.042-.025.017-.043.021-.055.013a.056.056 0 0 0-.029-.012c-.008 0-.015-.01-.018-.029-.002-.021-.017-.019-.041.005-.018.016-.02.028-.008.036s.021.012.029.012c.023.018.024.034.004.055l-.043.041c-.075.049-.17.137-.289.265a3.182 3.182 0 0 0-.333.468 2.119 2.119 0 0 0-.203.502 4.73 4.73 0 0 0-.12.541.343.343 0 0 0 .019.12c.029.048.049.088.055.12s.008.088.004.168l-.003.048c-.004.096.012.212.045.348.062.216.112.358.148.432a2.025 2.025 0 0 0 .673.787.967.967 0 0 1 .116.078c.124.063.22.105.281.131.11.048.217.084.319.107.193.025.296.036.312.036.145 0 .249-.004.313-.012l.073-.012.072-.012a.165.165 0 0 0 .072-.013l.073-.012a1.9 1.9 0 0 0 .535-.156c.017-.016.031-.016.048 0l.034.048.074-.035.098-.035c.022 0 .048-.013.074-.034l.072-.036a.052.052 0 0 1 .037-.013c.008 0 .012-.007.013-.019s.005-.019.014-.019c.016 0 .032-.009.049-.023.016-.017.032-.008.046.023-.014-.03-.005-.056.028-.07.008 0 .023-.013.049-.036l.05-.036a.34.34 0 0 1 .11-.073v-.012c.001-.017.012-.03.032-.042.021-.013.03-.021.031-.03.007.017.016.021.024.013-.015-.024-.006-.032.025-.024h.024c0-.008-.005-.017-.018-.023-.011-.01-.013-.017-.003-.025.024-.023.045-.023.061 0-.024-.025-.016-.037.024-.037a.028.028 0 0 0-.012-.022c-.007-.008-.005-.017.002-.026h.048c.016.017.024.017.024 0 .008 0 .01-.002.006-.006a.026.026 0 0 0-.018-.006l-.01-.036c.038.023.062.04.069.048.016.017.027.024.036.024.008-.009.01-.015.007-.02a.03.03 0 0 0-.018-.005l-.022-.023a.03.03 0 0 1-.012-.024c.008-.008.019-.008.03 0a.055.055 0 0 0 .03.012h.013c-.018.017-.01.032.021.048a.498.498 0 0 1 .173.155c0 .009.003.017.012.024a.05.05 0 0 1 .01.026.06.06 0 0 1-.041-.013.123.123 0 0 1-.029-.024h-.025l.012.013c.021.024.03.044.021.061 0 .008.008.012.024.012a.055.055 0 0 0 .037-.012c.031 0 .051.008.059.023a.03.03 0 0 1-.032.005c-.011-.004-.021-.002-.029.007a.126.126 0 0 0 .059.012c.024 0 .04.008.046.023-.006-.016-.008-.025-.004-.029s.015-.006.031-.006c0 .008.007.012.023.012.008 0 .012.004.012.013-.001.015.006.031.021.046.016.017.031.025.047.025.008.017.031.024.071.024.032 0 .047.004.047.012a.246.246 0 0 0 .076.054.234.234 0 0 1 .065.041.42.42 0 0 0 .127.097c.021.022.042.036.058.036.039.022.063.048.069.07-.001.025.018.037.058.037.009 0 .016-.002.02-.006s.01-.002.018.006c.038.017.054.036.045.061h.023l.011.012a.203.203 0 0 0 .061-.012c.024-.009.031 0 .022.022-.001.017-.005.029-.013.037.031 0 .051.017.058.048a.094.094 0 0 0 .028.024c.012.008.021.017.028.023a.135.135 0 0 1 .001.013zM.788 4.196H.776l-.002.023h.013l.001-.023zm.006 1.463.001-.023-.012-.025v.013l-.002.035h.013zm.06-.263h.019c.012 0 .019-.013.02-.036-.022-.023-.04-.017-.05.023.006.009.011.013.011.013zm.018-.685.014-.035-.024-.013c-.008 0-.012.008-.013.023l.011.025h.012zm.034 1.38-.023-.025-.001.025.024.012v-.012zM.907 5S.9 5.022.89 5.07L.942 5H.907zm.056.347v-.012l-.011-.012-.001.024h.012zm.004-1.151v.013l.012-.013H.967zm.038 1.572A.08.08 0 0 0 1 5.743c-.005-.009-.007-.009-.007 0l-.002.036.012.013.002-.024zm.009-1.273v-.012l-.013.012L1 4.52l.014-.025zm.002-.312v-.012.012zm.021-.732-.015.054c-.011.036-.007.055.01.055l.013-.023c.027-.057.024-.093-.007-.109l-.001.023zm.026 2.604-.011-.012.011.022v-.01zm.013-1.344-.013.024.012.013.001-.023v-.014zm.029-1.463.011.071a.4.4 0 0 0 .025-.071.145.145 0 0 1 .04-.072l.032-.031a.195.195 0 0 0 .033-.054c-.024-.024-.05-.008-.075.048l-.066.109zm.038 3.432-.035-.025-.002.036.036.013.001-.024zm-.005-.937.001-.023-.011-.025-.013.025.012.023h.011zm-.004-.18v.013c0 .008.001.014.005.019a.03.03 0 0 1 .005.018l-.01-.05zm.028-1.692h-.013l-.012.024c0 .018.003.024.011.024l.012-.024.002-.024zm.018 2.544-.013-.012-.012.012c.008.008.012.017.012.023 0 .008.003.013.012.013l.001-.036zm.004-2.232h.02c.012 0 .033-.02.067-.06-.008 0-.019-.006-.035-.02-.016-.01-.03-.012-.043-.004a.111.111 0 0 0-.031.036l.022.048zm.035 1.872.002-.06-.021-.024c-.018 0-.021.012-.016.036l.035.048zm-.03-2.52.014-.024v-.012l-.013.024-.001.012zm0 2.124.011.025-.011-.025zm.017-1.968v-.012.012zm.022-.491-.014.048c-.009.032-.01.047-.002.047s.014-.004.018-.012l.02-.036c.017-.032.018-.047.002-.047h-.024zm.092.611c.002-.04-.001-.061-.008-.061s-.035.037-.078.109h.042c.021 0 .033.018.04.049l.004-.097zm-.059 2.917.011.024-.011-.024zm.07-2.341.025-.048c-.015-.008-.044.008-.085.048h.06zm-.024 1.068-.013-.012-.012.012.011.012.014-.012zm.006-2.004-.007.006c-.004.004-.006.01-.007.018l.013-.012.001-.023v.011zm.025 2.64c-.008 0-.014-.002-.019-.006s-.01-.01-.018-.02c.007.01.011.021.01.036l.023.024.004-.034zm.011-3.18v-.012l-.012.024.012-.012zm.031 3.048.001-.024c-.015-.032-.023-.039-.024-.024l-.001.035c-.001.017.007.025.023.025l.001-.012zm.037-2.172c.01-.017.01-.027.002-.036l-.024.012.012.023c-.002.001.002.001.01.001zm-.002.324v.014-.014zm.125-1.452c-.017 0-.049.023-.1.071h.023c.023 0 .035.021.033.06 0 .04-.002.072-.003.097a.937.937 0 0 0 .059-.216l-.012-.012zm-.08 4.44.001-.022H1.45l.01.022zm.032-3.888c-.01-.007-.017-.003-.025.012-.008 0-.012.002-.012.006l-.001.02h.022l.016-.038zm-.012.252-.024.023.023.013c0 .008.001.008.006 0a.055.055 0 0 0 .007-.024v-.012H1.48zm.035 1.896.003-.071-.038.035.035.036zm-.03.66.012.011.001-.022h-.012l-.001.011zm.022 1.392h-.013l.012.012.001-.012zm.002-4.308s.005.016.016.042c.012.028.037.026.078-.006-.04-.015-.058-.048-.056-.096 0-.008-.001-.014-.005-.014-.005 0-.011.006-.02.014l-.024.048a.273.273 0 0 0 .011.012zm-.006 1.716h.012v-.012l-.012.012zm.09-.659-.012.012-.013.011c-.001.017.003.025.011.025l.013-.024.001-.024zm-.016-.721h.012l.025-.013.001-.036-.024.013a1.204 1.204 0 0 1-.014.036zm.022 1.644V5.07l.001-.023v.023l-.001.013zm.029-.36.022.012c.016.008.029.005.038-.012-.021-.04-.046-.04-.071 0h.011zm.021-1.818c.008.005.021-.006.038-.029.018-.039.021-.063.009-.071-.011-.009-.017-.018-.017-.026.001-.015-.005-.019-.018-.011a.09.09 0 0 0-.031.035c-.01.04-.011.064-.003.072.007.009.011.017.01.023l.012.007zm.015 3.402.002-.048c-.016-.008-.023 0-.024.024l.022.024zm-.018-2.532c.008 0 .013-.008.014-.023V3.74l-.014.023v.012zm.002-1.116h.012l.002-.036-.012.012-.002.024zm.035 1.62-.001.036.025-.023.001-.02c0-.004-.004-.006-.013-.006l-.012.013zm.035 3.492-.011-.011-.012-.013c-.016 0-.016.005 0 .013l.023.011zm-.033-5.4h.024c.008 0 .02-.009.037-.024.024-.008.028-.02.014-.036-.008 0-.02.009-.038.024l-.037.036zm.014 2.088-.012.012-.001.036.013-.012v-.036zm.002-1.105.005.014.016.035c.003-.056-.008-.075-.032-.06l.011.011zm.022-.215-.001.024-.014.037c.016 0 .022-.01.023-.024l.015-.036-.023-.001zm.019 2.784.012-.012a.144.144 0 0 0-.017-.049c-.011-.022-.021-.022-.028 0 .021.041.033.061.033.061zm.007.372h-.012l.001-.024h-.012l.011.024h.012zm.056-2.567s-.025.017-.075.047c.024.018.041.022.054.019s.03-.023.056-.054l-.035-.012zm-.047.743.087-.06c-.015-.017-.03-.026-.046-.03s-.032-.002-.049.006l-.001.036.009.048zm.033 1.152c-.008 0-.015.002-.019.006a.035.035 0 0 0-.006.018c.015.008.022.016.022.023a.054.054 0 0 0 .015-.035c0 .001-.005-.003-.012-.012zm-.023-.564-.001.024.001-.024zm.01-2.352h.012l.013-.013-.013.013h-.012zm.047 1.369.039-.085c-.041.024-.067.068-.077.133l.038-.048zm-.022-1.645s.005.005.018.013c.013.009.037.009.078 0 .003-.071-.023-.097-.081-.071-.011.038-.015.058-.015.058zm.016.684.001-.012-.001.012zm.019 1.992c.001-.016-.002-.022-.01-.022l-.002.022.011.013.001-.013zm.006-2.256.013-.036v-.012l-.024.012-.001.036h.012zm.037 5.028-.01-.025h-.013l.012.025h.011zm-.014-3.671c0 .008.001.012.005.012s.006-.004.007-.012l.001-.025c-.008 0-.012.004-.012.013l-.001.012zm.004-1.945h.012a.05.05 0 0 0 .013-.036h-.012l-.013.036zm.042 4.381.001-.024c-.016-.009-.027-.009-.035 0l.01.036.024-.012zm.052-4.093.026-.036c-.009-.008-.04.008-.099.048 0 .017.011.021.035.013a.558.558 0 0 0 .038-.025zm-.027 1.416-.011-.024c-.009.008-.013.016-.013.024v.012l.024-.012zm.03.132h-.012l-.001.012.013-.012zm.005 3.072-.001.024h.013l-.012-.024zm.007-3.348h.024l.024-.023.001-.024-.024.023a1.292 1.292 0 0 0-.025.024zm.055-.96.074-.071c-.008 0-.017-.006-.028-.018s-.034-.01-.066.005l.02.084zm-.009-.612v.012c-.001.025.011.046.033.066.023.02.034.038.034.054.007.017.023.017.048 0l.038-.048c.02-.04.01-.051-.021-.036h-.025c-.032 0-.042-.032-.032-.095.019-.04.002-.05-.046-.024l-.029.071zm.019 1.74-.001.012.001-.012zm.003-1.932v-.012.012zm.023 1.596.038-.035c-.007-.016-.015-.022-.024-.018a.165.165 0 0 0-.038.042l.024.011zm.008-.168-.006.007-.02.018v.023l.025-.013.001-.023v-.012zm-.013-.252.014-.024-.014.012v.012zm.015-.324v.013-.013zm.013-.3v.013l.013-.013h-.013zm.067.672h-.024l-.025.012c-.009.024-.01.036-.002.036h.013a.909.909 0 0 1 .038-.048zm-.023.492-.013.012V3.8l.013-.013v-.012zm.015-.6v.012-.012l.014-.012-.014.012zm.044.36-.013.025.012-.013.001-.012zm.077-1.704-.022-.023-.025.011c-.018.008-.026.02-.026.036h.023l.05-.024zm-.031.144-.024.012-.014.024L2.23 2l.013-.025zm.014 4.488h-.012.012zm.016-3.816.013-.013h-.012l-.013.013h.012zm.016.168-.024.012-.001.036.012-.012.013-.036zm.031-.684c-.016.016-.025.029-.025.036l.023-.014.002-.022zm.001 1.056.001-.022-.013.01-.012.012h.024zm.007-1.092c.005-.016-.002-.02-.019-.012-.008.024-.004.037.011.037l.008-.025zm-.003 2.328h-.012v.013h.013v-.013zm.015-2.748.013-.012h-.012l-.001.012zm.056 1.728c-.009-.007-.021-.004-.037.012l.022.023.014-.023.001-.012zm.025-1.656v.013l-.025.011-.012.024c.008 0 .02-.008.036-.023l.001-.025zm.558 4.92.115.107c.216.2.417.336.607.408.017-.022.03-.035.039-.035h.01a1.284 1.284 0 0 1-.2-.096 6.524 6.524 0 0 1-.37-.287 1.208 1.208 0 0 1-.212-.235l-.13-.187c-.201-.327-.319-.622-.356-.887l-.021-.072c.004-.088-.01-.128-.042-.12-.032 0-.037.017-.015.048-.002.041.002.064.01.072.008.16.03.293.065.396.043.137.098.26.164.371.016.032.083.146.202.337l.134.18zm-.572-4.332v.012l.012-.012h-.012zm.03.672-.013.012h.012l.001-.012zm.042-.144c-.017 0-.028.009-.038.024-.007.008-.007.02-.001.036l.025-.013.014-.047zM2.437 5.12v.012l.013-.012v-.013l-.013.013zm.141-3.637c0-.017-.008-.021-.023-.019a1.007 1.007 0 0 1-.073.019c.016.023.046.031.096.023v-.023zm-.083 2.1v-.012l-.013.024.013-.012zm.002-1.379-.013.011.013-.011zm.08-.193.014-.024-.05.049a.143.143 0 0 0-.039.061c-.009.006-.012.014-.014.023 0 .008.009.008.024 0a.085.085 0 0 0 .063-.062l.002-.047zM2.5 1.855v-.012h-.01v.012h.01zm.007.132.025-.022.038-.037-.049.011-.013.024-.001.024zm.026.756v.012-.012zm.087-1.128-.012-.02c-.007-.01-.031-.012-.071-.004-.003.056.011.089.043.097.048 0 .101-.023.16-.071-.059.031-.094.031-.108 0l-.012-.002zm-.012.792.061-.014c-.008 0-.024-.012-.046-.035l-.015.049zm.11.216a.08.08 0 0 0-.049.019.419.419 0 0 1-.049.029.285.285 0 0 0 .109-.036l-.011-.012zm-.096-.792h.097c.009-.031.01-.054.002-.065-.008-.013-.032-.015-.072-.006l-.027.071zm.02.9h-.013l-.001.024.014-.024zm.057 4.572-.011-.012h-.013.013l.011.012zm.024-4.524.074-.048c-.008 0-.021-.006-.034-.019-.016-.011-.04-.009-.073.008.021.04.033.059.033.059zm.015.744V3.51h-.011v.013h.011zm.061-1.62-.012-.012c-.008-.008-.02-.008-.036 0-.043.056-.027.068.047.036l.001-.024zm-.042 6.24v.014-.014zm.001-6.684v.012l.012-.012h-.012zm.047.576h.012l.025-.023h-.025l-.012.023zm.025 4.224.011.012-.011-.012zm.007-3.336v.012l.012-.012h-.012zm0-.552.013-.012h-.012l-.001.012zm.044.084-.024.023c-.009.009-.014.025-.015.049.017 0 .024-.004.025-.013l.024-.035-.01-.024zm.018.145-.013.011-.012.012h.012l.013-.023zm.007-.421-.012.012-.001.013.014-.014c-.002.001-.002-.003-.001-.011zm.147-.612c.001-.017-.006-.024-.022-.024-.024 0-.047.006-.067.019s-.039.021-.055.029l.022.013a.097.097 0 0 0 .049-.013.173.173 0 0 1 .072-.012v-.012zm-.139 1.236h.013V2.79l-.013.013zm.134-.576-.023-.022c-.015-.018-.023-.03-.022-.038l-.038.037.044.084.039-.061zm-.07-.84h.024v-.012l-.024.012zm.005 2.028a.05.05 0 0 0 .037-.013l.014-.023c-.024 0-.04.004-.049.012-.001 0-.002.008-.002.024zm.041-.396.003-.06a.146.146 0 0 0-.026.042c-.009.02-.01.035-.001.042l.024-.024zm-.023-1.608c.021.022.055.022.096 0h-.096zm.031 1.164v-.012l-.024.012v.012l.024-.012zm.064-.864h-.061c-.026.04-.022.057.01.049l.051-.049zm-.076.336h.013-.013zm.022-.732h.036c.008 0 .014-.002.018-.006s.006-.01.007-.018h-.037l-.024.024zm.053.925c-.001.04.038.059.118.059a.198.198 0 0 1-.034-.053.185.185 0 0 0-.057-.066l-.027.06zm.1-.877c-.023 0-.053.017-.086.049.008.022.038.02.097-.014.04-.023.044-.035.012-.035h-.023zm.034.576-.049.024.011.012.038-.036zm.013-.288-.006-.012c-.003-.009-.013-.013-.029-.013a.113.113 0 0 0-.015.042c0 .013.012.019.035.019l.015-.036zm-.045.456h.024c0 .018.011.014.037-.012l.013-.024c0-.016-.011-.016-.036 0a3.002 3.002 0 0 1-.038.036zm.079-.96-.028.006a.203.203 0 0 1-.043.006c-.001.024.014.032.046.024l.025-.036zm-.038 6.732h-.025l.022.022h.013l-.01-.022zm.071-5.724c-.011-.008-.034 0-.065.024.03 0 .06-.004.084-.012a.06.06 0 0 1-.019-.012zm-.052 1.032h.012a.05.05 0 0 0 .015-.036l-.014.013-.013.023zm.122-.852v-.012c-.007.008-.021.012-.036.012-.023.008-.037.02-.038.036l.037-.013.037-.023zm-.025-.504.013-.013h-.013l-.012.013h.012zm.067-.696s-.017.023-.045.072c-.03.048-.034.084-.01.106a.546.546 0 0 0 .143-.25c0-.016-.008-.023-.023-.023l-.05.049-.015.046zm-.012.792.062-.024c.032-.016.051-.031.056-.048a.132.132 0 0 0 .008-.036c.007-.007.005-.013-.006-.017a.028.028 0 0 0-.03.006c-.033.015-.054.033-.062.053a.13.13 0 0 0-.014.042l-.014.024zm.001 1.056.021.036c0-.008.009-.02.026-.036.016-.016.021-.026.013-.036h-.024c-.007 0-.011.005-.012.013a.292.292 0 0 0-.024.023zm.047-.779h-.013c0 .008.003.012.013.012l.012-.012h-.012zm.192-.265-.048.013A.074.074 0 0 0 3.55 2c.007.016-.001.031-.026.048a.22.22 0 0 0-.048.012c-.025.008-.03.02-.014.035.007.025.043.029.107.012l.051-.036c-.016-.008-.016-.024.001-.048.017-.023.026-.04.026-.048l.002-.036zm-.191-.299-.002.035h.024c.026-.024.043-.035.051-.035l-.036-.013a.519.519 0 0 0-.037.013zm.174-.133c0-.016-.01-.034-.034-.054-.022-.02-.025-.042-.008-.066a.559.559 0 0 0-.113.096c0 .017.021.025.065.029a.736.736 0 0 0 .09.008v-.013zM3.538.943l.038-.035c.001-.017-.012-.017-.036 0l-.039.035h.037zm.002 6.613.001-.013-.001.013zm.036-6.397v.013H3.6c.008-.008.017-.013.025-.013s.012-.005.012-.013h-.025l-.036.013zM3.6 8.887l-.012-.012h-.011l.011.012H3.6zm.016-7.812-.007.007a.026.026 0 0 1-.017.005l.022.012c.018-.016.026-.028.027-.036h-.025v.012zm-.007 1.488h-.013l-.001.024.013-.012.001-.012zm.079-.684.038-.024c.024-.016.037-.028.038-.036 0-.007.005-.019.013-.035.009-.016 0-.023-.023-.023l-.038.01a.122.122 0 0 0-.039.084.578.578 0 0 0 .011.024zm-.006-.671h.012c0 .008.017.012.048.012a.678.678 0 0 0 .133-.012c-.009-.008-.03-.019-.066-.031s-.037-.03-.003-.054l-.098.06-.026.025zm.032.084h.012-.012l-.012.011.012-.011zm.078.683c-.05.025-.076.042-.081.054-.005.013.013.026.052.042l.029-.096zm.016-.36-.019-.007a.203.203 0 0 0-.078.007c.023 0 .051.008.083.023l.014-.023zm.006-.672s-.032.009-.097.024a.068.068 0 0 0 .034.018.207.207 0 0 0 .085-.006L3.814.943zM3.807.835 3.772.812c0-.008.006-.014.02-.019a.242.242 0 0 0 .042-.019c.032 0 .048.004.047.013.017.008.003.021-.037.036a3.648 3.648 0 0 0-.037.012zm-.027.6.012.014h.036c.031-.018.042-.024.024-.024 0-.016-.011-.016-.035 0l-.037.01zm.066.912-.047-.022c-.024.029-.014.055.034.07l.013-.048zm.062-.576h-.036l-.024.012h.023l.037-.012zm.005.168-.024.013A.05.05 0 0 0 3.85 2c0 .008.016.012.047.012.025-.008.037-.024.039-.048l-.023-.025zm-.058-.6c0 .017.013.021.036.012.008-.008.008-.014.001-.018a.068.068 0 0 0-.023-.005l-.014.011zm.033.36.012-.011h-.011l-.001.011zm.006-.66c0 .009.003.011.011.007a.059.059 0 0 1 .025-.007v-.012h-.024l-.012.012zm.059 1.092H3.94l-.012.012h.024l.001-.012zm-.025.553h.012v-.013h-.012v.013zm.029-1.453-.001.024c0 .008.043.008.132 0a.316.316 0 0 0-.119-.036l-.012.012zm.15.648s.029-.018.086-.049a.24.24 0 0 0-.096.013l-.098.036a.31.31 0 0 0 .07.048l.038-.048zm-.071-.804v-.012l-.012.012h.012zm-.006.66v.013h.036l.024-.024c.008-.007.005-.017-.01-.024l-.05.035zm.059.288.006-.006a.026.026 0 0 1 .018-.006h-.036l-.024.012h.036zm-.031-.636c0 .008.012.008.036 0 .025-.022.021-.036-.01-.036l-.026.024v.012zm.001-.539v.011h.023l.024-.011h-.047zm.053.923-.036.023-.013.014.036.011.013-.023v-.025zm-.004.36c.001-.017-.007-.017-.022 0-.009 0-.014.008-.015.022h.014a1.03 1.03 0 0 0 .023-.022zM4.079.907l.011.035c.015.024.054.032.118.024l-.01-.049c.008-.007.013-.015.013-.022 0-.008-.016-.008-.048 0l-.084.012zm.296.096-.073.035a.568.568 0 0 1-.122.049.115.115 0 0 0-.074.022c-.008.018.003.026.035.026h.156l-.012-.011c.001-.017.025-.039.069-.067.046-.028.069-.046.069-.054L4.412.979l.011.024h-.048zm-.244.624h.097c-.024-.023-.06-.027-.108-.012a.273.273 0 0 0 .011.012zm.046.577-.001.023h.012l.015-.022h-.026zm.043-.684c0-.017.005-.04.016-.071.009-.033-.006-.054-.046-.062-.002.016-.004.042-.01.078s.011.062.051.078L4.22 1.52zm.077-.385c-.017.016-.026.029-.026.036l.026-.036zm.266-.3h-.048c-.023 0-.077.009-.157.023.023 0 .052.002.083.007a.406.406 0 0 0 .144-.013c.008-.004.008-.005 0-.005C4.57.84 4.563.835 4.563.835zM4.366 2l.011.035c.016-.009.023-.017.023-.023C4.402 2.003 4.398 2 4.39 2h-.024zm.02-.445h-.012v.013l.012-.013zm.164-.431L4.443 1.1c-.049.031-.043.055.021.071l.086-.047zm-.034.755h.024c0-.017-.008-.021-.023-.012l-.001.012zm.109-.702c-.004-.004-.015-.006-.03-.006-.008.008-.016.012-.024.012s-.012.004-.012.012c-.009.009-.009.014-.001.018s.017.002.024-.006c.016 0 .032-.008.049-.024l-.006-.006zm-.029-.27-.037.011h.023c.023 0 .041-.004.049-.012l-.035.001zm-.018.12h.023l-.01-.012c-.017 0-.024.004-.025.012h.012zm.031.648h-.012l.011.013.012-.013h-.011zm.011-.24h.022c.018 0 .028-.004.037-.012l-.022-.012-.025.012-.012.012zm.015.996.023.013c0-.008.005-.013.013-.013l-.023-.012-.013.012zm.035-.516h.024l-.011-.012-.013.012zm.108-.264.037-.019c.024-.011.032-.021.025-.028l-.036-.013c-.032.009-.049.02-.049.036l-.002.036.025-.012zm-.02-.359H4.784l-.013-.013-.013.013zm.013.527.022.024h.036a.03.03 0 0 0 .024-.013c0-.009-.011-.013-.036-.013a.807.807 0 0 1-.046.002zm.126-.948c.001-.023-.034-.047-.104-.072a.1.1 0 0 1 .021.043c.007.019.035.034.082.042l.001-.013zm-.049 1.098c.017-.012.017-.026.002-.042-.041.024-.05.044-.028.06l.026-.018zm.054-.942-.011-.006a.057.057 0 0 0-.025-.006l-.024.012c.008 0 .016.002.023.007s.017.005.025.005l.024-.013-.012.001zM4.857.955c.017 0 .024-.004.025-.013H4.87l-.024.013h.011zm.131.576-.054-.03a.21.21 0 0 0-.064-.03.07.07 0 0 0 .021.049.265.265 0 0 0 .094.048l.003-.037zm-.091.132h-.012c0 .008.003.012.012.012h.013l-.013-.012zm-.001-.492v.012l.013-.012h.011-.024zm.029.144a.115.115 0 0 0 .059.013h.014l-.013-.013h-.06zm.043.648.011.012.001-.024-.012.012zm.024-.012.024-.013h-.011l-.013.013zm.058-.492H5.076 5.05zm.041-.647.012.013.013-.013h-.025zm.063.743h-.023l.011.013h.036l-.01-.023a.22.22 0 0 0-.014.01zm-.004-.192.07.061c.033-.026.027-.053-.02-.085l-.05.024zm.003.492.006.019c.003.013.005.021.004.029l.051-.06a3.674 3.674 0 0 0-.061.012zm.105.06-.096-.013a.372.372 0 0 1 .029.037c.012.018.033.028.065.036.007.008.019.008.036 0a4.09 4.09 0 0 1-.034-.06zm.003.192-.023-.022c0 .008-.007.016-.019.022-.011.008-.006.017.017.024l.025-.024zm.098-.84-.118-.036c.017.01.025.024.028.048.002.024.04.041.111.05 0 .007-.006.017-.02.028-.011.012-.01.022.006.03.023-.008.031-.018.024-.03a.076.076 0 0 1-.01-.029l-.021-.061zM5.258.835v.013l.036.011.024-.011C5.311.84 5.294.835 5.271.835h-.013zm.031.66.029-.006c.021-.005.022-.015.008-.03-.041.008-.058.024-.05.048a.341.341 0 0 0 .013-.012zm.021.6.047.012c.025-.016.022-.026-.01-.036a2.664 2.664 0 0 0-.037.024zm.043.384.013-.013h-.012l-.001.013zM5.362.943h.026H5.362zm.026.768h.023c.03.017.042.028.034.036h-.024c-.031 0-.048-.008-.047-.023l.014-.013zm-.01.732-.001.023c.008 0 .016-.002.024-.006s.009-.01 0-.019l-.023.002zm.08-.972-.019.013c-.013.008-.006.015.018.023.033-.008.033-.024.001-.048v.012zm-.002.588v.012h.022l-.01-.012h-.012zm.034-.48v-.012h-.025l.012.013h.013zm-.019.936h.072c-.001.024-.017.032-.049.024l-.024-.012.001-.012zm.008-1.236s.024.01.071.024l-.046-.048-.025.024zm.029.696h.012-.012zm.047.54h-.012.012zm-.012 0h.012-.012zm.01-1.536h.06L5.601.967h-.048v.012zm.135.456-.001.014.012.011h.035l-.022-.025h-.024zm.122.222c0-.013-.008-.019-.022-.019 0-.009-.001-.011-.006-.007-.005.007-.011.009-.02.009-.008 0-.008.004 0 .012l.023.023h.023c.001 0 .002-.006.002-.018zm-.032-.09.012-.012-.011-.012-.013.012.012.012zM5.767.751h.096c.017-.017.006-.027-.034-.036-.04 0-.061.005-.061.013l-.001.023zm.089.144h-.012c-.009.008-.005.012.011.012h.023L5.856.895zm.052.162c0 .004.004.006.013.006l-.012-.024-.001.018zm.058-.222v.013c-.001.015.03.035.094.06L6.028.812a5.597 5.597 0 0 0-.062.023zm.112.984-.035-.035c-.048 0-.052.017-.015.047l.05-.012zm-.005-.695v.012h.013l-.013-.012zm.139 5.975-.001.012.001-.012zm.306-.12h.012-.012zm.031.108.022.023.014-.013c-.008 0-.012-.008-.011-.022h-.025v.012zm.1-.636h.013-.013zm.054.132h-.012.012zm.081.348h-.013.013zm.016-.348h-.013.013zm-.001.024c.007.024.018.028.036.013l-.036-.013zm.025.241h-.012.012zm.013.239.011.012h.024c-.016-.016-.031-.024-.046-.024l.011.012zm.033-.468h-.035l.046.035c-.008-.022-.011-.035-.011-.035zm-.01-.059h-.022l.021.023.001-.023zm.016.455h-.024v.012c.017.024.027.024.036 0l-.012-.012zm-.004-.156-.013-.011v.012l.013-.001zm-.012-.036v.013-.013zm.032-.408v-.012h-.013l.013.012zm-.005.36.011.013h.014l-.025-.013zm.016-.095h-.012l.011.012.001-.012zm.026.215h-.036l.046.036-.01-.036zM6.9 6.487h.013H6.9zm.022.06h-.013.013zm.004.156v.013-.013zm.012-.252c.017.008.027.008.036 0-.008-.015-.019-.024-.035-.024l-.001.024zm.001.229v.012h.011V6.68h-.011zm.016.192c-.009.008-.01.013-.001.017.008.004.011.01.011.019 0-.009.005-.015.013-.019s.008-.009.001-.017h-.024zm.002-.325.023.024c.008.009.016.013.024.013v-.013l-.047-.024zm.058.06c-.016-.024-.031-.028-.048-.011-.009 0-.004.008.011.023.008 0 .015.002.018.006.003.005.01.002.018-.006l.001-.012zm-.032.157-.005-.012c-.004-.009-.006-.009-.006 0-.008.008-.007.014.005.018a.06.06 0 0 1 .029.018l-.01-.023-.013-.001zm-.008-.084h.012l-.011-.013-.001.013zm.018.143H6.98c0 .009.003.013.013.013v-.013zm.029-.12H7.01c-.008 0-.011.005-.012.013-.009 0-.012.002-.007.006.004.004.011.006.019.006-.001.017.007.017.023 0 0-.008-.004-.012-.012-.012l.001-.013zm-.014-.204v-.012h-.012c-.001.008.003.012.012.012zm.041.396h-.024l-.012.011c.024.009.04.009.048 0l-.012-.011zm-.021-.072h-.011v.013h.012l-.001-.013zm-.012.276c.009 0 .012.004.012.013l.001-.013h-.013zm.008-.444.005.007c.005.004.01.006.019.006.008 0 .018.007.029.019.011.011.025.013.041.005 0-.008-.008-.016-.022-.023a.053.053 0 0 1-.029-.012c-.012-.009-.021-.009-.029 0l-.014-.002zm.03.396-.012.012c0 .009.007.014.023.014l-.011-.026zm.002-.299h.012-.012zm.028.167v.012h.036l-.036-.012zm.027-.06c-.008-.007-.015-.011-.023-.011v.012l.023-.001zm.016-.084v.007c0 .004.003.006.011.006h.012v-.013h-.023zm.073-.023-.018-.02a.054.054 0 0 0-.04-.016.233.233 0 0 0 .034.029.073.073 0 0 0 .047.019 1.104 1.104 0 0 0-.023-.012zm-.02.179c-.015-.016-.021-.016-.022 0h.022zm.036 0h.012-.012zm.021-.215v.012h.013v-.012h-.013zm.731.84h-.012l.011.012.001-.012zm.086-.049h-.012v.013h.012v-.013z"/></svg>